<?xml version="1.0" encoding="UTF-8" standalone="no"?>
<!-- Created with Inkscape (http://www.inkscape.org/) -->

<svg
   xmlns:dc="http://purl.org/dc/elements/1.1/"
   xmlns:cc="http://creativecommons.org/ns#"
   xmlns:rdf="http://www.w3.org/1999/02/22-rdf-syntax-ns#"
   xmlns:svg="http://www.w3.org/2000/svg"
   xmlns="http://www.w3.org/2000/svg"
   xmlns:sodipodi="http://sodipodi.sourceforge.net/DTD/sodipodi-0.dtd"
   xmlns:inkscape="http://www.inkscape.org/namespaces/inkscape"
   width="320"
   height="110"
   id="svg3420"
   version="1.1"
   inkscape:version="0.48.4 r9939"
   sodipodi:docname="New document 10">
  <defs
     id="defs3422">
    <clipPath
       clipPathUnits="userSpaceOnUse"
       id="clipPath3067">
      <path
         inkscape:connector-curvature="0"
         d="m 0,1190.55 841.89,0 L 841.89,0 0,0 0,1190.55 z"
         id="path3069" />
    </clipPath>
  </defs>
  <sodipodi:namedview
     id="base"
     pagecolor="#ffffff"
     bordercolor="#666666"
     borderopacity="1.0"
     inkscape:pageopacity="0.0"
     inkscape:pageshadow="2"
     inkscape:zoom="0.7"
     inkscape:cx="32.142857"
     inkscape:cy="120"
     inkscape:document-units="px"
     inkscape:current-layer="layer1"
     showgrid="false"
     height="524.41px"
     inkscape:window-width="1142"
     inkscape:window-height="710"
     inkscape:window-x="2"
     inkscape:window-y="80"
     inkscape:window-maximized="0" />
  <metadata
     id="metadata3425">
    <rdf:RDF>
      <cc:Work
         rdf:about="">
        <dc:format>image/svg+xml</dc:format>
        <dc:type
           rdf:resource="http://purl.org/dc/dcmitype/StillImage" />
        <dc:title></dc:title>
      </cc:Work>
    </rdf:RDF>
  </metadata>
  <g
     inkscape:label="Layer 1"
     inkscape:groupmode="layer"
     id="layer1"
     transform="translate(0,-942.36207)">
    <g
       transform="matrix(1.25,0,0,-1.25,-342.19624,1630.3949)"
       id="g3273">
      <g
         transform="translate(290.29039,524.84579)"
         id="g3051">
        <path
           id="path3053"
           style="fill:#231f20;fill-opacity:1;fill-rule:nonzero;stroke:none"
           d="m 0,0 15.989,0 0,7.08 -23.67,0 -0.035,0 -4.686,0 4.686,-7.537 0,-44.488 7.716,0 0,22.83 13.841,0 0,6.603 L 0,-15.512 0,0 z"
           inkscape:connector-curvature="0" />
      </g>
      <g
         transform="translate(317.25679,498.43559)"
         id="g3055">
        <path
           id="path3057"
           style="fill:#231f20;fill-opacity:1;fill-rule:nonzero;stroke:none"
           d="M 0,0 5.25,25.694 10.58,0 0,0 z m 0.875,33.49 -12.41,-52.025 7.796,0 2.546,12.489 12.966,0 2.625,-12.489 7.955,0 -12.489,52.025 -8.989,0 z"
           inkscape:connector-curvature="0" />
      </g>
      <g
         transform="translate(351.77869,531.92569)"
         id="g3059">
        <path
           id="path3061"
           style="fill:#231f20;fill-opacity:1;fill-rule:nonzero;stroke:none"
           d="m 0,0 -7.478,0 0,-52.025 22.592,0 0,7.159 L 0,-44.866 0,0 z"
           inkscape:connector-curvature="0" />
      </g>
      <g
         transform="translate(-19.187808,-41.864309)"
         id="g3065"
         clip-path="url(#clipPath3067)">
        <g
           id="g3071"
           transform="translate(403.1036,527.6517)">
          <path
             d="m 0,0 c -4.216,0 -6.284,3.421 -6.284,8.591 l 0,22.274 c 0,5.966 2.068,9.148 6.364,9.148 3.341,0 5.329,-2.227 6.125,-6.602 l 5.886,1.909 c -1.193,6.761 -5.886,11.534 -12.568,11.534 -8.353,0 -13.524,-6.045 -13.524,-15.989 l 0,-22.274 c 0,-9.148 5.092,-15.194 13.365,-15.194 7.159,0 11.455,3.501 12.807,11.853 L 6.284,7.08 C 5.33,1.75 3.5,0 0,0"
             style="fill:#231f20;fill-opacity:1;fill-rule:nonzero;stroke:none"
             id="path3073"
             inkscape:connector-curvature="0" />
        </g>
        <g
           id="g3075"
           transform="translate(440.8867,537.0384)">
          <path
             d="m 0,0 c 0,-6.603 -2.148,-9.307 -6.682,-9.307 -4.614,0 -6.682,2.704 -6.682,9.307 l 0,21.399 c 0,6.523 2.148,9.227 6.682,9.227 C -2.068,30.626 0,27.922 0,21.399 L 0,0 z m -6.682,37.468 c -9.466,0 -14.398,-5.967 -14.398,-16.069 L -21.08,0 c 0,-10.023 4.932,-15.989 14.398,-15.989 9.466,0 14.478,5.966 14.478,15.989 l 0,21.399 c 0,10.102 -5.012,16.069 -14.478,16.069"
             style="fill:#231f20;fill-opacity:1;fill-rule:nonzero;stroke:none"
             id="path3077"
             inkscape:connector-curvature="0" />
        </g>
        <g
           id="g3079"
           transform="translate(476.7617,540.9363)">
          <path
             d="m 0,0 -15.353,32.854 -5.807,0 0,-52.025 6.841,0 0,33.887 15.83,-33.887 5.25,0 0,52.025 L 0,32.854 0,0 z"
             style="fill:#231f20;fill-opacity:1;fill-rule:nonzero;stroke:none"
             id="path3081"
             inkscape:connector-curvature="0" />
        </g>
        <g
           id="g3083"
           transform="translate(499.0746,545.5501)">
          <path
             d="m 0,0 12.33,0 0,6.205 -12.33,0 0,14.955 14.525,0 4.351,7.08 -26.592,0 0,-52.025 23.392,0 0,7 L 0,-16.785 0,0 z"
             style="fill:#231f20;fill-opacity:1;fill-rule:nonzero;stroke:none"
             id="path3085"
             inkscape:connector-curvature="0" />
        </g>
        <g
           id="g3087"
           transform="translate(520.9714,573.79)">
          <path
             d="m 0,0 -4.351,-7.159 10.851,0 0,-44.866 7.796,0 0,44.866 9.546,0 0,7.159 L 0,0 z"
             style="fill:#231f20;fill-opacity:1;fill-rule:nonzero;stroke:none"
             id="path3089"
             inkscape:connector-curvature="0" />
        </g>
        <g
           id="g3091"
           transform="translate(309.4782,240.6267)">
          <path
             d="m 0,0 15.989,0 0,7.08 -23.67,0 -0.035,0 -4.686,0 4.686,-7.537 0,-44.488 7.716,0 0,22.83 13.841,0 0,6.603 L 0,-15.512 0,0 z"
             style="fill:#ffffff;fill-opacity:1;fill-rule:nonzero;stroke:none"
             id="path3093"
             inkscape:connector-curvature="0" />
        </g>
        <g
           id="g3095"
           transform="translate(336.4446,214.2164)">
          <path
             d="M 0,0 5.25,25.694 10.58,0 0,0 z m 0.875,33.49 -12.41,-52.025 7.796,0 2.546,12.489 12.966,0 2.625,-12.489 7.955,0 -12.489,52.025 -8.989,0 z"
             style="fill:#ffffff;fill-opacity:1;fill-rule:nonzero;stroke:none"
             id="path3097"
             inkscape:connector-curvature="0" />
        </g>
        <g
           id="g3099"
           transform="translate(370.9665,247.7065)">
          <path
             d="m 0,0 -7.478,0 0,-52.025 22.592,0 0,7.159 L 0,-44.866 0,0 z"
             style="fill:#ffffff;fill-opacity:1;fill-rule:nonzero;stroke:none"
             id="path3101"
             inkscape:connector-curvature="0" />
        </g>
        <g
           id="g3103"
           transform="translate(403.1036,201.5682)">
          <path
             d="m 0,0 c -4.216,0 -6.284,3.421 -6.284,8.591 l 0,22.274 c 0,5.966 2.068,9.148 6.364,9.148 3.341,0 5.329,-2.227 6.125,-6.602 l 5.886,1.909 c -1.193,6.761 -5.886,11.534 -12.568,11.534 -8.353,0 -13.524,-6.045 -13.524,-15.989 l 0,-22.274 c 0,-9.148 5.092,-15.194 13.365,-15.194 7.159,0 11.455,3.501 12.807,11.853 L 6.284,7.08 C 5.33,1.75 3.5,0 0,0"
             style="fill:#ffffff;fill-opacity:1;fill-rule:nonzero;stroke:none"
             id="path3105"
             inkscape:connector-curvature="0" />
        </g>
        <g
           id="g3107"
           transform="translate(440.8867,210.9549)">
          <path
             d="m 0,0 c 0,-6.603 -2.148,-9.307 -6.682,-9.307 -4.614,0 -6.682,2.704 -6.682,9.307 l 0,21.399 c 0,6.523 2.148,9.227 6.682,9.227 C -2.068,30.626 0,27.922 0,21.399 L 0,0 z m -6.682,37.468 c -9.466,0 -14.398,-5.967 -14.398,-16.069 L -21.08,0 c 0,-10.023 4.932,-15.989 14.398,-15.989 9.466,0 14.478,5.966 14.478,15.989 l 0,21.399 c 0,10.102 -5.012,16.069 -14.478,16.069"
             style="fill:#ffffff;fill-opacity:1;fill-rule:nonzero;stroke:none"
             id="path3109"
             inkscape:connector-curvature="0" />
        </g>
        <g
           id="g3111"
           transform="translate(476.7617,214.8528)">
          <path
             d="m 0,0 -15.353,32.854 -5.807,0 0,-52.025 6.841,0 0,33.888 15.83,-33.888 5.25,0 0,52.025 L 0,32.854 0,0 z"
             style="fill:#ffffff;fill-opacity:1;fill-rule:nonzero;stroke:none"
             id="path3113"
             inkscape:connector-curvature="0" />
        </g>
        <g
           id="g3115"
           transform="translate(499.0746,219.4667)">
          <path
             d="m 0,0 12.33,0 0,6.205 -12.33,0 0,14.955 14.525,0 4.351,7.08 -26.592,0 0,-52.025 23.392,0 0,7 L 0,-16.785 0,0 z"
             style="fill:#ffffff;fill-opacity:1;fill-rule:nonzero;stroke:none"
             id="path3117"
             inkscape:connector-curvature="0" />
        </g>
        <g
           id="g3119"
           transform="translate(520.9714,247.7065)">
          <path
             d="m 0,0 -4.351,-7.159 10.851,0 0,-44.866 7.796,0 0,44.866 9.546,0 0,7.159 L 0,0 z"
             style="fill:#ffffff;fill-opacity:1;fill-rule:nonzero;stroke:none"
             id="path3121"
             inkscape:connector-curvature="0" />
        </g>
        <g
           id="g3123"
           transform="translate(466.945,719.0443)">
          <path
             d="m 0,0 -92,0 c -30.25,0 -55,24.75 -55,55 l 0,92 c 0,30.25 24.75,55 55,55 l 92,0 c 30.25,0 55,-24.75 55,-55 L 55,55 C 55,24.75 30.25,0 0,0"
             style="fill:#57c035;fill-opacity:1;fill-rule:nonzero;stroke:none"
             id="path3125"
             inkscape:connector-curvature="0" />
        </g>
        <g
           id="g3127"
           transform="translate(417.0008,861.6723)">
          <path
             d="m 0,0 35.156,0 0,15.567 -52.045,0 -0.077,0 -10.302,0 10.302,-16.571 0,-97.819 16.966,0 0,50.199 30.434,0 0,14.517 L 0,-34.107 0,0 z"
             style="fill:#ffffff;fill-opacity:1;fill-rule:nonzero;stroke:none"
             id="path3129"
             inkscape:connector-curvature="0" />
        </g>
      </g>
    </g>
  </g>
</svg>
